<?xml version="1.0" encoding="UTF-8" standalone="no"?>
<!-- Created with Inkscape (http://www.inkscape.org/) -->

<svg
   width="480"
   height="320"
   viewBox="0 0 126.99999 84.666666"
   version="1.1"
   id="svg5"
   inkscape:version="1.1.2 (0a00cf5339, 2022-02-04)"
   sodipodi:docname="bg-testimony.svg"
   xmlns:inkscape="http://www.inkscape.org/namespaces/inkscape"
   xmlns:sodipodi="http://sodipodi.sourceforge.net/DTD/sodipodi-0.dtd"
   xmlns:xlink="http://www.w3.org/1999/xlink"
   xmlns="http://www.w3.org/2000/svg"
   xmlns:svg="http://www.w3.org/2000/svg">
  <sodipodi:namedview
     id="namedview7"
     pagecolor="#ffffff"
     bordercolor="#666666"
     borderopacity="1.0"
     inkscape:pageshadow="2"
     inkscape:pageopacity="0.0"
     inkscape:pagecheckerboard="0"
     inkscape:document-units="mm"
     showgrid="false"
     units="px"
     width="480px"
     height="480px"
     inkscape:zoom="0.8374018"
     inkscape:cx="262.71737"
     inkscape:cy="145.09164"
     inkscape:window-width="1366"
     inkscape:window-height="704"
     inkscape:window-x="0"
     inkscape:window-y="0"
     inkscape:window-maximized="1"
     inkscape:current-layer="g33545" />
  <defs
     id="defs2">
    <linearGradient
       inkscape:collect="always"
       id="linearGradient33898">
      <stop
         style="stop-color:#db2777;stop-opacity:1"
         offset="0"
         id="stop33894" />
      <stop
         style="stop-color:#1e3aaf;stop-opacity:1"
         offset="1"
         id="stop33896" />
    </linearGradient>
    <linearGradient
       inkscape:collect="always"
       xlink:href="#linearGradient33898"
       id="linearGradient33900"
       x1="194.21123"
       y1="44.426846"
       x2="117.65372"
       y2="254.26025"
       gradientUnits="userSpaceOnUse"
       gradientTransform="matrix(0.02803911,0,0,0.02803911,62.748298,72.884782)" />
    <linearGradient
       inkscape:collect="always"
       xlink:href="#linearGradient33898"
       id="linearGradient34793"
       gradientUnits="userSpaceOnUse"
       x1="194.21123"
       y1="44.426846"
       x2="117.65372"
       y2="254.26025"
       gradientTransform="matrix(0.02803911,0,0,0.02803911,69.430243,72.884782)" />
  </defs>
  <g
     inkscape:label="Layer 1"
     inkscape:groupmode="layer"
     id="layer1">
    <text
       xml:space="preserve"
       style="font-style:normal;font-weight:normal;font-size:10.5833px;line-height:1.25;font-family:sans-serif;fill:#000000;fill-opacity:1;stroke:none;stroke-width:0.264583"
       x="16.006454"
       y="103.58838"
       id="text1178"><tspan
         sodipodi:role="line"
         id="tspan1176"
         style="stroke-width:0.264583"
         x="16.006454"
         y="103.58838" /></text>
    <text
       xml:space="preserve"
       style="font-style:normal;font-weight:normal;font-size:10.5833px;line-height:1.25;font-family:sans-serif;fill:#000000;fill-opacity:1;stroke:none;stroke-width:0.264583"
       x="19.695503"
       y="92.39534"
       id="text4818"><tspan
         sodipodi:role="line"
         id="tspan4816"
         style="stroke-width:0.264583"
         x="19.695503"
         y="92.39534" /></text>
    <g
       id="g33545"
       transform="matrix(9.436223,0,0,9.436223,-592.10693,-687.75705)">
      <g
         id="g34802"
         transform="translate(-0.35978991)">
        <g
           id="g34797">
          <path
             id="text25284"
             style="font-style:normal;font-weight:normal;font-size:10.5833px;line-height:1.25;font-family:sans-serif;fill:url(#linearGradient33900);fill-opacity:1;stroke:none;stroke-width:0.264583"
             d="m 67.033901,73.373879 c -1.119653,0 -2.001577,0.365193 -2.645808,1.095551 -0.640786,0.726913 -0.961161,1.727694 -0.961161,3.002375 0,1.243676 0.273854,2.204857 0.821623,2.883538 0.551213,0.675236 1.328067,1.012858 2.330586,1.012858 0.909502,0 1.634727,-0.248039 2.175605,-0.744131 0.540878,-0.499538 0.811327,-1.162752 0.811327,-1.989572 0,-0.747584 -0.242876,-1.352194 -0.728633,-1.813835 -0.482312,-0.461642 -1.117954,-0.692435 -1.906879,-0.692435 -0.313502,0 -0.6029,0.04306 -0.868172,0.129188 -0.265271,0.08268 -0.511608,0.208405 -0.738984,0.377214 0.05512,-0.647676 0.248072,-1.135132 0.5788,-1.462415 0.330728,-0.330728 0.792369,-0.496106 1.384924,-0.496106 0.275607,0 0.558084,0.0379 0.847471,0.11369 0.289387,0.07235 0.597734,0.186041 0.925017,0.341069 v -1.42627 c -0.327283,-0.110243 -0.657984,-0.192905 -0.992157,-0.248026 -0.334174,-0.05512 -0.678716,-0.08269 -1.033559,-0.08269 z" />
          <path
             id="path34791"
             style="font-style:normal;font-weight:normal;font-size:10.5833px;line-height:1.25;font-family:sans-serif;fill:url(#linearGradient34793);fill-opacity:1;stroke:none;stroke-width:0.264583"
             d="m 73.715846,73.373879 c -1.119653,0 -2.001577,0.365193 -2.645808,1.095551 -0.640785,0.726913 -0.961161,1.727694 -0.961161,3.002375 0,1.243676 0.273855,2.204857 0.821623,2.883538 0.551213,0.675236 1.328067,1.012858 2.330587,1.012858 0.909502,0 1.634726,-0.248039 2.175605,-0.744131 0.540878,-0.499538 0.811326,-1.162752 0.811326,-1.989572 0,-0.747584 -0.242876,-1.352194 -0.728633,-1.813835 -0.482312,-0.461641 -1.117954,-0.692435 -1.906879,-0.692435 -0.313502,0 -0.6029,0.04306 -0.868172,0.129188 -0.265271,0.08268 -0.511608,0.208405 -0.738983,0.377214 0.05512,-0.647676 0.248071,-1.135132 0.578799,-1.462415 0.330728,-0.330728 0.79237,-0.496106 1.384924,-0.496106 0.275607,0 0.558084,0.0379 0.847471,0.11369 0.289387,0.07235 0.597734,0.186041 0.925017,0.341069 v -1.42627 c -0.327283,-0.110243 -0.657984,-0.192905 -0.992157,-0.248026 -0.334173,-0.05512 -0.678715,-0.08269 -1.033559,-0.08269 z" />
        </g>
      </g>
      <g
         id="g34842"
         transform="translate(-0.35978991)">
        <g
           id="g34840">
          <path
             id="path34836"
             style="font-style:normal;font-weight:normal;font-size:10.5833px;line-height:1.25;font-family:sans-serif;fill:url(#linearGradient33900);fill-opacity:1;stroke:none;stroke-width:0.264583"
             d="m 67.033901,73.373879 c -1.119653,0 -2.001577,0.365193 -2.645808,1.095551 -0.640786,0.726913 -0.961161,1.727694 -0.961161,3.002375 0,1.243676 0.273854,2.204857 0.821623,2.883538 0.551213,0.675236 1.328067,1.012858 2.330586,1.012858 0.909502,0 1.634727,-0.248039 2.175605,-0.744131 0.540878,-0.499538 0.811327,-1.162752 0.811327,-1.989572 0,-0.747584 -0.242876,-1.352194 -0.728633,-1.813835 -0.482312,-0.461642 -1.117954,-0.692435 -1.906879,-0.692435 -0.313502,0 -0.6029,0.04306 -0.868172,0.129188 -0.265271,0.08268 -0.511608,0.208405 -0.738984,0.377214 0.05512,-0.647676 0.248072,-1.135132 0.5788,-1.462415 0.330728,-0.330728 0.792369,-0.496106 1.384924,-0.496106 0.275607,0 0.558084,0.0379 0.847471,0.11369 0.289387,0.07235 0.597734,0.186041 0.925017,0.341069 v -1.42627 c -0.327283,-0.110243 -0.657984,-0.192905 -0.992157,-0.248026 -0.334174,-0.05512 -0.678716,-0.08269 -1.033559,-0.08269 z" />
          <path
             id="path34838"
             style="font-style:normal;font-weight:normal;font-size:10.5833px;line-height:1.25;font-family:sans-serif;fill:url(#linearGradient34793);fill-opacity:1;stroke:none;stroke-width:0.264583"
             d="m 73.715846,73.373879 c -1.119653,0 -2.001577,0.365193 -2.645808,1.095551 -0.640785,0.726913 -0.961161,1.727694 -0.961161,3.002375 0,1.243676 0.273855,2.204857 0.821623,2.883538 0.551213,0.675236 1.328067,1.012858 2.330587,1.012858 0.909502,0 1.634726,-0.248039 2.175605,-0.744131 0.540878,-0.499538 0.811326,-1.162752 0.811326,-1.989572 0,-0.747584 -0.242876,-1.352194 -0.728633,-1.813835 -0.482312,-0.461641 -1.117954,-0.692435 -1.906879,-0.692435 -0.313502,0 -0.6029,0.04306 -0.868172,0.129188 -0.265271,0.08268 -0.511608,0.208405 -0.738983,0.377214 0.05512,-0.647676 0.248071,-1.135132 0.578799,-1.462415 0.330728,-0.330728 0.79237,-0.496106 1.384924,-0.496106 0.275607,0 0.558084,0.0379 0.847471,0.11369 0.289387,0.07235 0.597734,0.186041 0.925017,0.341069 v -1.42627 c -0.327283,-0.110243 -0.657984,-0.192905 -0.992157,-0.248026 -0.334173,-0.05512 -0.678715,-0.08269 -1.033559,-0.08269 z" />
        </g>
      </g>
    </g>
  </g>
</svg>
